Coordinates
version=1
nRows=15
nColumns=46
inDegrees=yes

Units are S.I. units (second, meters, Newtons, ...)
Angles are in degrees.

endheader
time	pelvis_tilt	pelvis_list	pelvis_rotation	pelvis_tx	pelvis_ty	pelvis_tz	bb_angle	bb_tx	bb_ty	bb_tz	hip_flexion_r	hip_adduction_r	hip_rotation_r	knee_angle_r	knee_angle_r_beta	ankle_angle_r	subtalar_angle_r	mtp_angle_r	crank_angle_r	hip_flexion_l	hip_adduction_l	hip_rotation_l	knee_angle_l	knee_angle_l_beta	ankle_angle_l	subtalar_angle_l	mtp_angle_l	crank_angle_l	lumbar_extension	lumbar_bending	lumbar_rotation	arm_flex_r	arm_add_r	arm_rot_r	elbow_flex_r	pro_sup_r	wrist_flex_r	wrist_dev_r	arm_flex_l	arm_add_l	arm_rot_l	elbow_flex_l	pro_sup_l	wrist_flex_l	wrist_dev_l
      5.00000000	    -19.78935518	      9.14403210	      9.54603450	      0.38162763	      1.17568937	     -0.25693532	      0.00000000	      0.50000000	      0.00000000	      0.25000000	     17.34951689	    -15.09283123	      0.08281555	     29.99020262	      0.52342778	    -11.04812614	     -4.64685416	      0.00000000	      0.00000000	     70.62628910	      7.70897734	     -2.65928734	    105.62592224	      1.84352012	      0.30481206	     -8.51687865	      0.00000000	      0.00000000	    -58.61145681	     -2.21128706	     -4.55894190	     25.90352087	    -15.15640709	      1.96087009	     93.96090737	     50.70062207	      0.00000000	      0.00000000	     45.72491348	    -14.28726872	     31.39370731	     76.42134990	     56.02269651	      0.00000000	      0.00000000
      5.00500000	    -19.65816273	      8.99294749	     10.22003145	      0.38158846	      1.17810694	     -0.25758097	      0.00000000	      0.50000000	      0.00000000	      0.25000000	     17.96474564	    -15.04792293	      0.13974698	     32.24460528	      0.56277453	    -12.76795446	     -4.94874668	      0.00000000	      0.00000000	     70.18799817	      8.36376847	     -2.28474560	    104.44021310	      1.82282559	      1.83573777	     -8.74970671	      0.00000000	      0.00000000	    -59.24877086	     -1.74846620	     -4.72918119	     26.07796933	    -15.15777709	      1.85095716	     93.93912208	     50.68600299	      0.00000000	      0.00000000	     46.05697227	    -14.14966640	     31.37859272	     76.58641591	     56.04174415	      0.00000000	      0.00000000
      5.01000000	    -19.82864140	      9.17711436	     11.07304745	      0.38143365	      1.18073447	     -0.25834217	      0.00000000	      0.50000000	      0.00000000	      0.25000000	     19.04690458	    -15.48368489	      0.05710519	     34.70006225	      0.60563034	    -15.00165001	     -6.00579178	      0.00000000	      0.00000000	     69.56865169	      9.64333858	     -2.06358433	    102.68197155	      1.79213849	      4.28183762	     -9.00915175	      0.00000000	      0.00000000	    -59.77150345	     -1.49452458	     -5.34322572	     26.30011686	    -15.12578686	      1.50207465	     94.10897958	     50.68166127	      0.00000000	      0.00000000	     46.49871894	    -14.05260605	     31.40642318	     76.94509516	     56.09503818	      0.00000000	      0.00000000
      5.01500000	    -19.74647343	      9.21097467	     11.71610831	      0.38143500	      1.18345269	     -0.25855406	      0.00000000	      0.50000000	      0.00000000	      0.25000000	     20.05877290	    -15.60644623	      0.30707755	     37.23408928	      0.64985745	    -17.66027885	     -6.81983046	      0.00000000	      0.00000000	     68.71328392	     10.38283788	     -1.69760032	    100.99925329	      1.76276951	      6.52320889	     -8.53725631	      0.00000000	      0.00000000	    -60.46443729	     -1.19055263	     -5.83476448	     26.45807760	    -14.68800850	      1.01848558	     94.43366899	     50.69884185	      0.00000000	      0.00000000	     46.83990905	    -14.32584196	     31.47620433	     77.53713900	     56.18971479	      0.00000000	      0.00000000
      5.02000000	    -19.72293868	      9.18202975	     12.36196231	      0.38130266	      1.18602364	     -0.25904933	      0.00000000	      0.50000000	      0.00000000	      0.25000000	     21.24903223	    -15.71909279	      0.58843263	     39.79688029	      0.69458659	    -20.45191343	     -7.27024361	      0.00000000	      0.00000000	     67.79992401	     11.08385432	     -1.32750801	     99.16812522	      1.73081030	      8.75117257	     -8.17327002	      0.00000000	      0.00000000	    -61.10113434	     -0.88351012	     -5.96440658	     26.50576584	    -14.69393226	      0.44370701	     94.73779579	     50.70062142	      0.00000000	      0.00000000	     47.26480345	    -14.50597883	     30.56204209	     78.44441849	     56.21617623	      0.00000000	      0.00000000
      5.02500000	    -19.63483248	      8.93906459	     12.98578156	      0.38127113	      1.18847692	     -0.25944044	      0.00000000	      0.50000000	      0.00000000	      0.25000000	     22.39577951	    -15.55109202	      0.89262872	     42.17238444	      0.73604696	    -23.66461024	     -7.59229018	      0.00000000	      0.00000000	     66.71602208	     11.60805326	     -0.75136957	     97.25943125	      1.69749730	     11.14112876	     -7.76712256	      0.00000000	      0.00000000	    -61.75731811	     -0.20578544	     -6.47099890	     27.03976176	    -14.15844094	      0.24386151	     95.07402377	     50.76420343	      0.00000000	      0.00000000	     47.06233002	    -14.89663980	     29.71943899	     79.83558408	     56.34068762	      0.00000000	      0.00000000
      5.03000000	    -19.47279564	      8.74036993	     13.62322481	      0.38129971	      1.19071524	     -0.25969022	      0.00000000	      0.50000000	      0.00000000	      0.25000000	     23.52843040	    -15.43166680	      1.18600166	     44.59622141	      0.77835090	    -26.86219814	     -7.50791437	      0.00000000	      0.00000000	     65.64591842	     11.81370328	     -0.38026015	     95.33728979	      1.66394961	     12.87663517	     -7.16218235	      0.00000000	      0.00000000	    -62.37794339	      0.37782017	     -6.76701472	     27.35517199	    -14.08674220	      0.26533774	     95.15405810	     50.78390735	      0.00000000	      0.00000000	     47.35463866	    -14.96939787	     29.52201826	     80.17142623	     56.36624622	      0.00000000	      0.00000000
      5.03500000	    -19.39462677	      8.35375920	     14.27185840	      0.38134420	      1.19274653	     -0.26030406	      0.00000000	      0.50000000	      0.00000000	      0.25000000	     24.78226836	    -15.13601064	      1.45943088	     46.92713851	      0.81903308	    -30.15368803	     -7.19158620	      0.00000000	      0.00000000	     64.39116712	     12.17028282	      0.21559025	     93.11426580	      1.62515052	     14.72592627	     -7.27319253	      0.00000000	      0.00000000	    -62.87593101	      1.18828758	     -7.12121128	     27.82093295	    -13.81905023	      0.46407671	     95.22492656	     50.81752329	      0.00000000	      0.00000000	     47.32991867	    -14.86591004	     30.04081492	     80.34146957	     56.45671908	      0.00000000	      0.00000000
      5.04000000	    -19.25858039	      7.95579527	     14.91927977	      0.38153217	      1.19458657	     -0.26071797	      0.00000000	      0.50000000	      0.00000000	      0.25000000	     25.92045808	    -14.78496894	      1.56959456	     49.12902848	      0.85746331	    -33.39639383	     -7.05078368	      0.00000000	      0.00000000	     63.00169189	     12.43471184	      0.85209181	     90.74260324	      1.58375720	     16.24291919	     -7.31358424	      0.00000000	      0.00000000	    -63.31205579	      1.90022941	     -7.32438153	     28.11955722	    -13.67685157	      0.61765065	     95.20283316	     50.83412854	      0.00000000	      0.00000000	     47.51094532	    -15.25221250	     30.10488918	     80.82061535	     56.53401649	      0.00000000	      0.00000000
      5.04500000	    -19.12094806	      7.62432341	     15.64328998	      0.38161706	      1.19632142	     -0.26148231	      0.00000000	      0.50000000	      0.00000000	      0.25000000	     26.98732826	    -14.61755231	      1.48186805	     51.22205806	      0.89399356	    -36.36080960	     -6.89105513	      0.00000000	      0.00000000	     61.27703209	     13.10799976	      1.60256422	     87.95073108	      1.53502984	     17.52959414	     -8.63360435	      0.00000000	      0.00000000	    -63.75720014	      2.91073625	     -8.98320632	     29.68827135	    -12.70423831	      2.49885239	     93.83170727	     50.87572851	      0.00000000	      0.00000000	     46.33444607	    -17.12920985	     28.58842135	     83.36476357	     56.63789160	      0.00000000	      0.00000000
      5.05000000	    -19.03415180	      7.01211957	     16.29452749	      0.38175667	      1.19732398	     -0.26248987	      0.00000000	      0.50000000	      0.00000000	      0.25000000	     28.04350592	    -14.11596501	      1.49239501	     53.20061343	      0.92852587	    -38.43455766	     -6.08183416	      0.00000000	      0.00000000	     59.83867924	     13.30039860	      2.48566187	     85.36039907	      1.48982001	     18.54769349	     -8.81113547	      0.00000000	      0.00000000	    -63.97438636	      3.86391841	     -8.83866229	     29.89123675	    -12.73354024	      2.56489126	     93.81169360	     50.88156018	      0.00000000	      0.00000000	     46.35162134	    -17.17200610	     28.45470797	     83.57106484	     56.64669496	      0.00000000	      0.00000000
      5.05500000	    -18.77941810	      6.37707036	     17.01787428	      0.38185069	      1.19813230	     -0.26308049	      0.00000000	      0.50000000	      0.00000000	      0.25000000	     28.75171567	    -13.57748631	      1.33892507	     55.08188177	      0.96136020	    -39.22764752	     -4.73637537	      0.00000000	      0.00000000	     58.40314419	     13.22343172	      3.30276193	     82.88464526	      1.44660996	     19.15967306	     -8.43719341	      0.00000000	      0.00000000	    -64.30115126	      4.87046616	     -8.83509954	     30.16768626	    -12.66089434	      2.79157102	     93.74868111	     50.89931162	      0.00000000	      0.00000000	     46.19677383	    -17.45763397	     28.17165902	     83.99818487	     56.67033657	      0.00000000	      0.00000000
      5.06000000	    -18.54229459	      5.68478962	     17.62909805	      0.38226552	      1.19840203	     -0.26274969	      0.00000000	      0.50000000	      0.00000000	      0.25000000	     29.35022788	    -12.76366175	      1.33951607	     56.90811644	      0.99323400	    -39.48675267	     -4.17399210	      0.00000000	      0.00000000	     57.20568496	     12.61513659	      3.72570031	     80.60079850	      1.40674931	     19.12898216	     -8.07531597	      0.00000000	      0.00000000	    -64.46649200	      5.71287856	     -8.50898441	     30.13138053	    -12.57427454	      2.89972392	     93.62683410	     50.89251836	      0.00000000	      0.00000000	     46.28366000	    -17.64586264	     27.95178229	     84.18540669	     56.66896419	      0.00000000	      0.00000000
      5.06500000	    -18.37043842	      4.89001418	     18.09895008	      0.38248870	      1.19848999	     -0.26293912	      0.00000000	      0.50000000	      0.00000000	      0.25000000	     29.98028642	    -11.94094762	      1.24083977	     58.66503667	      1.02389805	    -39.53625315	     -3.52134958	      0.00000000	      0.00000000	     55.88983775	     12.15762280	      4.36236408	     78.12633711	      1.36356182	     19.27401695	     -7.94127443	      0.00000000	      0.00000000	    -64.57942241	      6.54811651	     -8.14255924	     30.27076679	    -12.48681143	      3.05517964	     93.54316986	     50.89521200	      0.00000000	      0.00000000	     46.20039955	    -17.85540734	     27.74583541	     84.40730099	     56.67701970	      0.00000000	      0.00000000
      5.07000000	    -17.96615322	      4.11328438	     18.70236289	      0.38290070	      1.19891697	     -0.26361347	      0.00000000	      0.50000000	      0.00000000	      0.25000000	     30.14950180	    -11.32277840	      0.62163452	     60.26264340	      1.05178154	    -39.48142262	     -2.87231230	      0.00000000	      0.00000000	     54.34488955	     11.73607590	      5.29627251	     75.77433294	      1.32251160	     19.38378879	     -7.26257723	      0.00000000	      0.00000000	    -64.94031495	      7.99034333	    -10.89498535	     33.07460027	    -10.79876042	      6.94676759	     90.85504700	     50.88823068	      0.00000000	      0.00000000	     42.87445062	    -20.71701091	     23.44365677	     88.96083536	     56.80638050	      0.00000000	      0.00000000
